PathFileType	4	(X/Y/Z)	./resultDataOpenSim/trcMotMarkerGrf/sub09/qtm-04-04.trc
DataRate	CameraRate	NumFrames	NumMarkers	Units	OrigDataRate	OrigDataStartFrame	OrigNumFrames
250.000000	250.000000	7	24	m	250.000000	1	496
Frame#	Time	L.Toe.Tip			R.Toe.Tip			L.Ankle.Lat			R.Ankle.Lat			L.Ankle.Med			R.Ankle.Med			L.Heel			R.Heel			L.Knee.Lat			R.Knee.Lat			L.Knee.Med			R.Knee.Med			L.Thigh.Upper			R.Thigh.Upper			L.ASIS			R.ASIS			V.Sacral			L.Acromium			R.Acromium			C7			L.Elbow			R.Elbow			L.Wrist.Lat			R.Wrist.Lat
		X1	Y1	Z1	X2	Y2	Z2	X3	Y3	Z3	X4	Y4	Z4	X5	Y5	Z5	X6	Y6	Z6	X7	Y7	Z7	X8	Y8	Z8	X9	Y9	Z9	X10	Y10	Z10	X11	Y11	Z11	X12	Y12	Z12	X13	Y13	Z13	X14	Y14	Z14	X15	Y15	Z15	X16	Y16	Z16	X17	Y17	Z17	X18	Y18	Z18	X19	Y19	Z19	X20	Y20	Z20	X21	Y21	Z21	X22	Y22	Z22	X23	Y23	Z23	X24	Y24	Z24

1	0	-1.5238608	0.036552806	-0.03158766	-0.8956741	0.10436658	0.10116285	-1.6727736	0.084543717	-0.054054137	-1.044872	0.07149311	0.12201374	-1.6399724	0.097763465	0.037007447	-1.0369745	0.11304214	0.032343167	NaN	NaN	NaN	-1.0907242	0.028924184	0.063245533	-1.5120704	0.47085104	-0.12103916	-1.1530352	0.51788412	0.16808892	-1.5054603	0.47029854	0.0060427454	-1.147718	0.49985844	0.04058312	-1.3897988	0.87214273	-0.16688352	-1.3594342	0.868239	0.20224519	-1.2813354	0.94244523	-0.11478652	-1.2748943	0.95047291	0.12644131	-1.4399658	1.0113562	0.014535628	-1.2388422	1.3998376	-0.15104975	-1.2860872	1.4091261	0.17390521	-1.3265051	1.4575786	0.0042909208	-1.3262023	1.0330712	-0.23108211	-1.4697081	1.0958338	0.24723857	-1.0730924	0.93157125	-0.19973568	-1.3833054	0.83922282	0.28680351
2	0.004	-1.523808	0.036586539	-0.031649866	-0.88072792	0.10872883	0.10185346	-1.6723865	0.085367522	-0.054422227	-1.0293103	0.072335601	0.12228986	-1.6396005	0.098380655	0.036738378	-1.0220215	0.11417379	0.032708905	NaN	NaN	NaN	-1.0738603	0.028711993	0.064037132	-1.5086913	0.47060978	-0.12117297	-1.1476572	0.51601212	0.16817861	-1.5026913	0.46999714	0.0059857954	-1.1415446	0.49837622	0.040617851	-1.3843344	0.87117531	-0.16651451	-1.3527604	0.86657339	0.20254946	-1.2754639	0.94113062	-0.11470011	-1.2684139	0.94882224	0.12655979	-1.4338824	1.0099979	0.014993923	-1.2330074	1.3985528	-0.15066312	-1.2803038	1.4076599	0.17425872	-1.3208367	1.4562586	0.0043773105	-1.3194699	1.0314838	-0.23080181	-1.4641681	1.0944536	0.24701884	-1.0655879	0.93192021	-0.19926593	-1.3787589	0.83769915	0.28736058
3	0.008	-1.5237507	0.036597661	-0.031720854	-0.86608921	0.11299578	0.10256155	-1.6719482	0.086253114	-0.054791395	-1.0139111	0.07327136	0.12260374	-1.6391137	0.099052871	0.036423825	-1.0073868	0.11532451	0.033053374	NaN	NaN	NaN	-1.0573295	0.02856955	0.064855873	-1.5051885	0.47036554	-0.12132652	-1.1427317	0.5140556	0.16812222	-1.4996308	0.46972293	0.0059047517	-1.1353533	0.49688137	0.040644714	-1.3788377	0.87019622	-0.1661284	-1.3461736	0.86486599	0.2028391	-1.2695849	0.93982053	-0.11465306	-1.2619366	0.9472084	0.12667756	-1.427773	1.0085794	0.015444903	-1.2271534	1.3972821	-0.15026624	-1.2745072	1.4061928	0.17462653	-1.3151311	1.4549348	0.0044864016	-1.3127422	1.0299213	-0.23053551	-1.4586583	1.0932269	0.24688213	-1.0581127	0.93225656	-0.19879296	-1.3741146	0.83616865	0.28788861
4	0.012	-1.5236847	0.036586494	-0.031800746	-0.85193898	0.11709867	0.10324148	-1.671448	0.087218561	-0.055171472	-0.99858525	0.074450574	0.12303571	-1.6384762	0.099816228	0.036054383	-0.99326049	0.11649086	0.033352321	NaN	NaN	NaN	-1.0413632	0.028549866	0.065633382	-1.5014854	0.47011208	-0.12150039	-1.1380468	0.5120878	0.16795737	-1.4962236	0.46947472	0.0058038811	-1.1291294	0.49537822	0.040667929	-1.3732766	0.86920844	-0.1657283	-1.3396109	0.86312786	0.20312163	-1.2636669	0.93851508	-0.11465037	-1.2554681	0.9456336	0.1267905	-1.4216227	1.0071036	0.015898689	-1.2212624	1.3960276	-0.14985658	-1.2686746	1.4047227	0.17500967	-1.3093248	1.4536116	0.0047304585	-1.306015	1.0283958	-0.23029451	-1.4529629	1.0921291	0.24682131	-1.0506747	0.93255775	-0.19832099	-1.3693474	0.83462949	0.28838127
5	0.016	-1.5236057	0.036567739	-0.031882787	-0.83834388	0.12099323	0.10378317	-1.6708923	0.088249735	-0.055571257	-0.98320952	0.075979932	0.12361672	-1.6377431	0.10066784	0.035650762	-0.97971013	0.11764496	0.033593957	NaN	NaN	NaN	-1.0260795	0.028663454	0.066295405	-1.4975554	0.46984522	-0.12168675	-1.1329064	0.5102945	0.16786512	-1.4925453	0.46923619	0.00569512	-1.1228792	0.49388474	0.040701244	-1.36764	0.86822	-0.1653242	-1.3329568	0.86139755	0.20341369	-1.2576883	0.93722787	-0.1146664	-1.2490085	0.94409093	0.1268947	-1.4154491	1.0056069	0.01637031	-1.2153298	1.3947817	-0.14943706	-1.2627958	1.403257	0.17540713	-1.3033226	1.4523079	0.0053782999	-1.2992946	1.0269135	-0.23007922	-1.4467815	1.0910036	0.24676698	-1.0432855	0.9327934	-0.19786325	-1.3644927	0.83309464	0.2888447
6	0.02	-1.5235095	0.036550878	-0.031963446	-0.82530575	0.12464875	0.1040893	-1.6702715	0.089336943	-0.055999379	-0.96804702	0.077717071	0.12419515	-1.6369831	0.10157717	0.035228898	-0.9666978	0.11876599	0.033790656	NaN	NaN	NaN	-1.011503	0.028884049	0.066819046	-1.4933982	0.46956676	-0.12187797	-1.1267626	0.5088123	0.16799683	-1.4886394	0.46899387	0.0055793547	-1.1166002	0.49241733	0.040760161	-1.361927	0.86723173	-0.16491815	-1.3261533	0.85969996	0.20372193	-1.2516464	0.93598267	-0.11467383	-1.2425334	0.94258476	0.12699051	-1.4092675	1.0041082	0.016864422	-1.2093593	1.3935387	-0.14901281	-1.2568614	1.4018071	0.17582477	-1.2970427	1.4510509	0.0066871486	-1.2925848	1.0254764	-0.22986749	-1.4401598	1.0897548	0.24667731	-1.0359537	0.93294667	-0.1974227	-1.3595658	0.83158079	0.28928553
7	0.024	-1.5233951	0.036536653	-0.032046295	-0.81285691	0.12802486	0.1041687	-1.6695711	0.090482035	-0.056467235	-0.95371685	0.079287059	0.12452743	-1.6362185	0.10252395	0.034787098	-0.95414044	0.1198563	0.033966919	NaN	NaN	NaN	-0.99764689	0.02916687	0.067169772	-1.4890404	0.46927706	-0.122061	-1.1195307	0.50766158	0.16839483	-1.4845285	0.4687333	0.0054565596	-1.1102594	0.49100125	0.040853957	-1.3561376	0.8662401	-0.16450665	-1.3192118	0.85804738	0.20404333	-1.2455502	0.93478236	-0.11466633	-1.2360155	0.94112619	0.12708421	-1.403065	1.002612	0.017380042	-1.2033626	1.3923064	-0.1485842	-1.2508626	1.400378	0.17626404	-1.2905549	1.4498447	0.0084919744	-1.2858815	1.0240795	-0.22961584	-1.4335177	1.0884172	0.24656612	-1.0286865	0.93302632	-0.19698648	-1.3545491	0.83009895	0.28971181
